{
	"asset":{
		"generator":"Khronos glTF Blender I/O v4.3.47",
		"version":"2.0"
	},
	"extensionsUsed":[
		"KHR_materials_specular",
		"KHR_materials_ior"
	],
	"scene":0,
	"scenes":[
		{
			"name":"Scene",
			"nodes":[
				0
			]
		}
	],
	"nodes":[
		{
			"mesh":0,
			"name":"3DApple002_LQ-1K-PNG",
			"rotation":[
				0.7071068286895752,
				0,
				0,
				0.7071068286895752
			]
		}
	],
	"materials":[
		{
			"doubleSided":true,
			"extensions":{
				"KHR_materials_specular":{
					"specularFactor":0.20000000298023224
				},
				"KHR_materials_ior":{
					"ior":1.4500000476837158
				}
			},
			"name":"3DApple002_LQ-1K-PNG",
			"normalTexture":{
				"index":0
			},
			"pbrMetallicRoughness":{
				"baseColorTexture":{
					"index":1
				},
				"metallicFactor":0,
				"metallicRoughnessTexture":{
					"index":2
				}
			}
		}
	],
	"meshes":[
		{
			"name":"3DApple002_LQ-1K-PNG",
			"primitives":[
				{
					"attributes":{
						"POSITION":0,
						"NORMAL":1,
						"TEXCOORD_0":2
					},
					"indices":3,
					"material":0
				}
			]
		}
	],
	"textures":[
		{
			"sampler":0,
			"source":0
		},
		{
			"sampler":0,
			"source":1
		},
		{
			"sampler":0,
			"source":2
		}
	],
	"images":[
		{
			"mimeType":"image/png",
			"name":"3DApple002_LQ-1K-PNG_NormalGL",
			"uri":"3DApple002_LQ-1K-PNG_NormalGL.png"
		},
		{
			"mimeType":"image/png",
			"name":"3DApple002_LQ-1K-PNG_Color",
			"uri":"3DApple002_LQ-1K-PNG_Color.png"
		},
		{
			"mimeType":"image/png",
			"name":"3DApple002_LQ-1K-PNG_Roughness",
			"uri":"3DApple002_LQ-1K-PNG_Roughness.png"
		}
	],
	"accessors":[
		{
			"bufferView":0,
			"componentType":5126,
			"count":587,
			"max":[
				0.034720998257398605,
				0.03714599832892418,
				-2.9000000722589903e-05
			],
			"min":[
				-0.03511999920010567,
				-0.03236899897456169,
				-0.0679050013422966
			],
			"type":"VEC3"
		},
		{
			"bufferView":1,
			"componentType":5126,
			"count":587,
			"type":"VEC3"
		},
		{
			"bufferView":2,
			"componentType":5126,
			"count":587,
			"type":"VEC2"
		},
		{
			"bufferView":3,
			"componentType":5123,
			"count":2994,
			"type":"SCALAR"
		}
	],
	"bufferViews":[
		{
			"buffer":0,
			"byteLength":7044,
			"byteOffset":0,
			"target":34962
		},
		{
			"buffer":0,
			"byteLength":7044,
			"byteOffset":7044,
			"target":34962
		},
		{
			"buffer":0,
			"byteLength":4696,
			"byteOffset":14088,
			"target":34962
		},
		{
			"buffer":0,
			"byteLength":5988,
			"byteOffset":18784,
			"target":34963
		}
	],
	"samplers":[
		{
			"magFilter":9729,
			"minFilter":9987
		}
	],
	"buffers":[
		{
			"byteLength":24772,
			"uri":"apple.bin"
		}
	]
}
